<svg xmlns="http://www.w3.org/2000/svg" viewBox="0 0 201 255" role="img" aria-labelledby="cn-v2-mark-title cn-v2-mark-desc">
  <title id="cn-v2-mark-title">Chiropractic Nerd V2 brain-question-mark</title>
  <desc id="cn-v2-mark-desc">Faithful vector outline of Variation 2 from the supplied brand guide. Deep teal and sage. Transparent background.</desc>
  <defs>
    <linearGradient id="cn-v2-mark-v2-teal" gradientUnits="userSpaceOnUse" x1="12" y1="100" x2="195" y2="115">
      <stop offset="0" stop-color="#203D3D"/>
      <stop offset="1" stop-color="#3D6861"/>
    </linearGradient>
    <clipPath id="cn-v2-mark-node-clip"><path clip-rule="evenodd" d="M69.70,11.50C78.16,9.44 87.66,10.34 95.50,14.06C97.25,14.89 98.92,15.96 100.50,17.09C101.46,17.77 102.32,18.83 103.50,19.14C105.83,19.77 109.10,19.02 111.50,18.90C115.47,18.69 119.55,18.75 123.50,19.20C130.30,19.97 136.32,21.78 142.50,24.61C145.75,26.10 149.20,27.37 152.10,29.50C155.97,32.33 159.11,35.88 162.20,39.50C164.12,41.74 166.10,43.92 167.57,46.50C169.59,50.05 171.41,53.60 172.68,57.50C173.10,58.81 173.58,60.16 173.90,61.50C174.23,62.92 174.23,64.31 175.17,65.50C175.68,66.16 177.65,66.46 178.50,66.87C180.85,68.01 182.93,69.41 184.54,71.50C191.66,80.71 189.56,95.07 178.50,100.12C177.22,100.70 175.38,100.81 174.50,101.96C173.68,103.03 173.35,105.18 172.91,106.50C172.00,109.21 171.02,111.91 169.81,114.50C166.75,121.07 161.79,127.57 156.48,132.50C153.11,135.62 149.46,137.93 145.50,140.20C143.48,141.36 141.60,142.83 139.50,143.85C136.95,145.10 134.23,146.01 131.50,146.79C126.88,148.12 122.07,148.81 117.50,150.28C111.72,152.13 106.13,154.96 101.50,158.92C99.77,160.40 97.76,161.97 96.50,163.89C95.68,165.14 96.77,165.77 97.50,166.72C98.61,168.16 99.54,169.81 100.23,171.50C102.03,175.88 101.97,181.28 99.78,185.50C97.96,189.00 95.06,192.21 91.50,193.97C85.17,197.10 76.32,195.73 71.46,190.50C65.51,184.10 64.68,173.15 70.82,166.50C73.17,163.96 76.05,161.79 79.50,161.04C80.96,160.73 83.19,161.05 84.50,160.36C86.14,159.51 87.24,156.96 88.36,155.50C90.82,152.30 94.08,149.11 97.50,146.98C100.06,145.38 102.80,143.67 105.59,142.50C107.22,141.82 109.33,141.49 109.78,139.50C111.57,131.65 108.05,124.13 104.38,117.50C101.39,112.11 97.24,106.42 92.42,102.50C89.11,99.81 85.36,97.67 81.50,95.88C78.53,94.50 75.65,93.11 72.50,92.15C62.61,89.12 51.17,89.35 41.50,93.03C39.58,93.76 39.52,95.78 38.91,97.50C38.55,98.48 38.01,99.44 37.50,100.34C34.79,105.09 29.92,108.35 24.50,109.02C22.19,109.31 19.76,109.33 17.50,108.73C8.39,106.27 2.84,96.60 4.86,87.50C5.49,84.70 6.70,82.12 8.50,79.89C9.27,78.94 11.25,77.47 11.50,76.28C11.88,74.48 11.26,72.34 11.23,70.50C11.18,67.48 11.54,64.44 12.26,61.50C14.72,51.38 22.16,42.14 31.50,37.50C33.42,36.54 35.43,35.73 37.50,35.18C38.67,34.87 40.45,34.97 41.50,34.30C42.80,33.47 43.42,31.78 44.16,30.50C45.38,28.39 46.92,26.52 48.50,24.68C53.99,18.29 61.56,13.48 69.70,11.50ZM75.50,22.46C67.14,23.34 59.62,28.50 55.13,35.50C53.91,37.41 52.63,39.37 51.84,41.50C51.59,42.18 51.08,44.20 50.49,44.50C48.18,45.70 45.06,45.56 42.50,46.00C39.71,46.49 36.95,47.79 34.50,49.17C28.77,52.40 24.58,59.28 23.11,65.50C22.73,67.13 22.68,68.83 22.69,70.50C22.69,70.84 22.69,72.17 22.82,72.50C23.34,73.73 24.36,73.66 25.50,73.85C26.90,74.08 28.19,74.43 29.50,74.97C31.34,75.73 33.46,77.00 34.79,78.50C35.57,79.38 36.28,80.95 37.50,81.29C38.28,81.51 39.75,80.96 40.50,80.76C42.48,80.23 44.48,79.96 46.50,79.59C48.49,79.22 50.51,79.09 52.50,78.74C56.99,77.95 61.14,76.45 65.50,75.24C71.25,73.65 76.95,70.72 81.50,66.80C83.35,65.20 85.06,63.38 86.61,61.50C87.26,60.71 88.58,59.53 88.82,58.50C89.08,57.39 88.44,56.50 88.12,55.50C86.23,49.56 87.35,42.94 91.50,38.22C92.76,36.79 94.07,35.56 95.65,34.50C96.26,34.09 97.73,33.42 97.81,32.50C98.05,30.01 95.26,27.83 93.50,26.61C88.22,22.98 81.85,21.79 75.50,22.46ZM110.50,30.45C109.48,30.78 110.31,33.01 110.78,33.50C111.53,34.27 112.60,34.74 113.50,35.30C114.84,36.12 115.95,37.32 116.96,38.50C121.02,43.22 122.24,49.60 120.10,55.50C117.75,61.96 112.40,66.31 105.50,67.00C103.68,67.18 101.79,67.00 100.03,66.50C99.26,66.28 98.19,65.83 97.50,66.56C95.75,68.43 94.22,70.51 92.50,72.41C89.22,76.02 84.76,79.17 80.50,81.49C78.92,82.35 81.55,83.36 81.88,83.50C84.44,84.56 87.05,85.32 89.50,86.65C93.89,89.04 97.75,92.29 101.50,95.55C103.33,97.14 105.12,98.65 106.70,100.50C109.63,103.93 112.72,107.57 114.95,111.50C116.20,113.72 117.10,116.16 118.09,118.50C119.06,120.79 120.15,123.07 120.75,125.50C121.39,128.11 121.87,130.81 121.98,133.50C122.01,134.26 121.61,136.57 122.50,136.98C123.95,137.66 127.09,136.19 128.50,135.69C131.52,134.62 134.66,133.52 137.50,132.01C140.79,130.26 143.73,127.93 146.55,125.50C151.65,121.10 155.61,116.72 158.35,110.50C159.38,108.17 160.47,105.93 161.25,103.50C161.54,102.60 162.08,101.45 161.92,100.50C161.75,99.51 160.86,99.08 160.18,98.50C159.11,97.59 158.08,96.62 157.23,95.50C153.11,90.05 150.66,81.42 154.50,75.11C155.98,72.68 157.67,70.29 159.92,68.50C160.98,67.66 162.79,67.07 162.72,65.50C162.53,61.54 160.02,57.85 158.19,54.50C156.87,52.07 155.50,49.71 153.82,47.50C151.60,44.56 148.39,42.13 145.50,39.89C143.29,38.17 141.07,36.34 138.50,35.17C134.10,33.15 129.27,31.75 124.50,30.97C121.50,30.48 118.54,30.09 115.50,30.06C113.83,30.05 112.10,29.93 110.50,30.45Z"/></clipPath>
  </defs>
  <g id="cn-v2-mark-brain-question-mark" fill="url(#cn-v2-mark-v2-teal)" fill-rule="evenodd"><path id="cn-v2-mark-brain-network" d="M69.70,11.50C78.16,9.44 87.66,10.34 95.50,14.06C97.25,14.89 98.92,15.96 100.50,17.09C101.46,17.77 102.32,18.83 103.50,19.14C105.83,19.77 109.10,19.02 111.50,18.90C115.47,18.69 119.55,18.75 123.50,19.20C130.30,19.97 136.32,21.78 142.50,24.61C145.75,26.10 149.20,27.37 152.10,29.50C155.97,32.33 159.11,35.88 162.20,39.50C164.12,41.74 166.10,43.92 167.57,46.50C169.59,50.05 171.41,53.60 172.68,57.50C173.10,58.81 173.58,60.16 173.90,61.50C174.23,62.92 174.23,64.31 175.17,65.50C175.68,66.16 177.65,66.46 178.50,66.87C180.85,68.01 182.93,69.41 184.54,71.50C191.66,80.71 189.56,95.07 178.50,100.12C177.22,100.70 175.38,100.81 174.50,101.96C173.68,103.03 173.35,105.18 172.91,106.50C172.00,109.21 171.02,111.91 169.81,114.50C166.75,121.07 161.79,127.57 156.48,132.50C153.11,135.62 149.46,137.93 145.50,140.20C143.48,141.36 141.60,142.83 139.50,143.85C136.95,145.10 134.23,146.01 131.50,146.79C126.88,148.12 122.07,148.81 117.50,150.28C111.72,152.13 106.13,154.96 101.50,158.92C99.77,160.40 97.76,161.97 96.50,163.89C95.68,165.14 96.77,165.77 97.50,166.72C98.61,168.16 99.54,169.81 100.23,171.50C102.03,175.88 101.97,181.28 99.78,185.50C97.96,189.00 95.06,192.21 91.50,193.97C85.17,197.10 76.32,195.73 71.46,190.50C65.51,184.10 64.68,173.15 70.82,166.50C73.17,163.96 76.05,161.79 79.50,161.04C80.96,160.73 83.19,161.05 84.50,160.36C86.14,159.51 87.24,156.96 88.36,155.50C90.82,152.30 94.08,149.11 97.50,146.98C100.06,145.38 102.80,143.67 105.59,142.50C107.22,141.82 109.33,141.49 109.78,139.50C111.57,131.65 108.05,124.13 104.38,117.50C101.39,112.11 97.24,106.42 92.42,102.50C89.11,99.81 85.36,97.67 81.50,95.88C78.53,94.50 75.65,93.11 72.50,92.15C62.61,89.12 51.17,89.35 41.50,93.03C39.58,93.76 39.52,95.78 38.91,97.50C38.55,98.48 38.01,99.44 37.50,100.34C34.79,105.09 29.92,108.35 24.50,109.02C22.19,109.31 19.76,109.33 17.50,108.73C8.39,106.27 2.84,96.60 4.86,87.50C5.49,84.70 6.70,82.12 8.50,79.89C9.27,78.94 11.25,77.47 11.50,76.28C11.88,74.48 11.26,72.34 11.23,70.50C11.18,67.48 11.54,64.44 12.26,61.50C14.72,51.38 22.16,42.14 31.50,37.50C33.42,36.54 35.43,35.73 37.50,35.18C38.67,34.87 40.45,34.97 41.50,34.30C42.80,33.47 43.42,31.78 44.16,30.50C45.38,28.39 46.92,26.52 48.50,24.68C53.99,18.29 61.56,13.48 69.70,11.50ZM75.50,22.46C67.14,23.34 59.62,28.50 55.13,35.50C53.91,37.41 52.63,39.37 51.84,41.50C51.59,42.18 51.08,44.20 50.49,44.50C48.18,45.70 45.06,45.56 42.50,46.00C39.71,46.49 36.95,47.79 34.50,49.17C28.77,52.40 24.58,59.28 23.11,65.50C22.73,67.13 22.68,68.83 22.69,70.50C22.69,70.84 22.69,72.17 22.82,72.50C23.34,73.73 24.36,73.66 25.50,73.85C26.90,74.08 28.19,74.43 29.50,74.97C31.34,75.73 33.46,77.00 34.79,78.50C35.57,79.38 36.28,80.95 37.50,81.29C38.28,81.51 39.75,80.96 40.50,80.76C42.48,80.23 44.48,79.96 46.50,79.59C48.49,79.22 50.51,79.09 52.50,78.74C56.99,77.95 61.14,76.45 65.50,75.24C71.25,73.65 76.95,70.72 81.50,66.80C83.35,65.20 85.06,63.38 86.61,61.50C87.26,60.71 88.58,59.53 88.82,58.50C89.08,57.39 88.44,56.50 88.12,55.50C86.23,49.56 87.35,42.94 91.50,38.22C92.76,36.79 94.07,35.56 95.65,34.50C96.26,34.09 97.73,33.42 97.81,32.50C98.05,30.01 95.26,27.83 93.50,26.61C88.22,22.98 81.85,21.79 75.50,22.46ZM110.50,30.45C109.48,30.78 110.31,33.01 110.78,33.50C111.53,34.27 112.60,34.74 113.50,35.30C114.84,36.12 115.95,37.32 116.96,38.50C121.02,43.22 122.24,49.60 120.10,55.50C117.75,61.96 112.40,66.31 105.50,67.00C103.68,67.18 101.79,67.00 100.03,66.50C99.26,66.28 98.19,65.83 97.50,66.56C95.75,68.43 94.22,70.51 92.50,72.41C89.22,76.02 84.76,79.17 80.50,81.49C78.92,82.35 81.55,83.36 81.88,83.50C84.44,84.56 87.05,85.32 89.50,86.65C93.89,89.04 97.75,92.29 101.50,95.55C103.33,97.14 105.12,98.65 106.70,100.50C109.63,103.93 112.72,107.57 114.95,111.50C116.20,113.72 117.10,116.16 118.09,118.50C119.06,120.79 120.15,123.07 120.75,125.50C121.39,128.11 121.87,130.81 121.98,133.50C122.01,134.26 121.61,136.57 122.50,136.98C123.95,137.66 127.09,136.19 128.50,135.69C131.52,134.62 134.66,133.52 137.50,132.01C140.79,130.26 143.73,127.93 146.55,125.50C151.65,121.10 155.61,116.72 158.35,110.50C159.38,108.17 160.47,105.93 161.25,103.50C161.54,102.60 162.08,101.45 161.92,100.50C161.75,99.51 160.86,99.08 160.18,98.50C159.11,97.59 158.08,96.62 157.23,95.50C153.11,90.05 150.66,81.42 154.50,75.11C155.98,72.68 157.67,70.29 159.92,68.50C160.98,67.66 162.79,67.07 162.72,65.50C162.53,61.54 160.02,57.85 158.19,54.50C156.87,52.07 155.50,49.71 153.82,47.50C151.60,44.56 148.39,42.13 145.50,39.89C143.29,38.17 141.07,36.34 138.50,35.17C134.10,33.15 129.27,31.75 124.50,30.97C121.50,30.48 118.54,30.09 115.50,30.06C113.83,30.05 112.10,29.93 110.50,30.45Z"/><g clip-path="url(#cn-v2-mark-node-clip)"><circle id="cn-v2-mark-left-node" cx="22.2" cy="92.1" r="18.3" fill="#203F3E"/><circle id="cn-v2-mark-upper-node" cx="104.3" cy="49.5" r="17.8" fill="#223F3F"/><circle id="cn-v2-mark-right-node" cx="171.6" cy="83.5" r="19" fill="#436C65"/><circle id="cn-v2-mark-stem-node" cx="83.8" cy="178.7" r="18.2" fill="#355D58"/></g><path id="cn-v2-mark-question-dot" fill="#315752" d="M81.94,209.50C91.50,207.04 102.39,214.03 104.78,223.50C107.52,234.36 101.03,244.67 90.44,247.50C80.68,250.11 69.19,243.62 67.16,233.50C66.29,229.19 66.48,224.61 68.13,220.50C70.40,214.85 76.26,210.96 81.94,209.50Z"/></g>
</svg>
