<svg xmlns="http://www.w3.org/2000/svg" viewBox="0 0 590 120" role="img" aria-labelledby="cn-v2-horizontal-title cn-v2-horizontal-desc"><title id="cn-v2-horizontal-title">Chiropractic Nerd</title><desc id="cn-v2-horizontal-desc">Variation 2 brain-question-mark beside the outlined Chiropractic Nerd wordmark.</desc><defs>
    <linearGradient id="cn-v2-horizontal-v2-teal" gradientUnits="userSpaceOnUse" x1="12" y1="100" x2="195" y2="115">
      <stop offset="0" stop-color="#203D3D" />
      <stop offset="1" stop-color="#3D6861" />
    </linearGradient>
    <clipPath id="cn-v2-horizontal-node-clip"><path clip-rule="evenodd" d="M69.70,11.50C78.16,9.44 87.66,10.34 95.50,14.06C97.25,14.89 98.92,15.96 100.50,17.09C101.46,17.77 102.32,18.83 103.50,19.14C105.83,19.77 109.10,19.02 111.50,18.90C115.47,18.69 119.55,18.75 123.50,19.20C130.30,19.97 136.32,21.78 142.50,24.61C145.75,26.10 149.20,27.37 152.10,29.50C155.97,32.33 159.11,35.88 162.20,39.50C164.12,41.74 166.10,43.92 167.57,46.50C169.59,50.05 171.41,53.60 172.68,57.50C173.10,58.81 173.58,60.16 173.90,61.50C174.23,62.92 174.23,64.31 175.17,65.50C175.68,66.16 177.65,66.46 178.50,66.87C180.85,68.01 182.93,69.41 184.54,71.50C191.66,80.71 189.56,95.07 178.50,100.12C177.22,100.70 175.38,100.81 174.50,101.96C173.68,103.03 173.35,105.18 172.91,106.50C172.00,109.21 171.02,111.91 169.81,114.50C166.75,121.07 161.79,127.57 156.48,132.50C153.11,135.62 149.46,137.93 145.50,140.20C143.48,141.36 141.60,142.83 139.50,143.85C136.95,145.10 134.23,146.01 131.50,146.79C126.88,148.12 122.07,148.81 117.50,150.28C111.72,152.13 106.13,154.96 101.50,158.92C99.77,160.40 97.76,161.97 96.50,163.89C95.68,165.14 96.77,165.77 97.50,166.72C98.61,168.16 99.54,169.81 100.23,171.50C102.03,175.88 101.97,181.28 99.78,185.50C97.96,189.00 95.06,192.21 91.50,193.97C85.17,197.10 76.32,195.73 71.46,190.50C65.51,184.10 64.68,173.15 70.82,166.50C73.17,163.96 76.05,161.79 79.50,161.04C80.96,160.73 83.19,161.05 84.50,160.36C86.14,159.51 87.24,156.96 88.36,155.50C90.82,152.30 94.08,149.11 97.50,146.98C100.06,145.38 102.80,143.67 105.59,142.50C107.22,141.82 109.33,141.49 109.78,139.50C111.57,131.65 108.05,124.13 104.38,117.50C101.39,112.11 97.24,106.42 92.42,102.50C89.11,99.81 85.36,97.67 81.50,95.88C78.53,94.50 75.65,93.11 72.50,92.15C62.61,89.12 51.17,89.35 41.50,93.03C39.58,93.76 39.52,95.78 38.91,97.50C38.55,98.48 38.01,99.44 37.50,100.34C34.79,105.09 29.92,108.35 24.50,109.02C22.19,109.31 19.76,109.33 17.50,108.73C8.39,106.27 2.84,96.60 4.86,87.50C5.49,84.70 6.70,82.12 8.50,79.89C9.27,78.94 11.25,77.47 11.50,76.28C11.88,74.48 11.26,72.34 11.23,70.50C11.18,67.48 11.54,64.44 12.26,61.50C14.72,51.38 22.16,42.14 31.50,37.50C33.42,36.54 35.43,35.73 37.50,35.18C38.67,34.87 40.45,34.97 41.50,34.30C42.80,33.47 43.42,31.78 44.16,30.50C45.38,28.39 46.92,26.52 48.50,24.68C53.99,18.29 61.56,13.48 69.70,11.50ZM75.50,22.46C67.14,23.34 59.62,28.50 55.13,35.50C53.91,37.41 52.63,39.37 51.84,41.50C51.59,42.18 51.08,44.20 50.49,44.50C48.18,45.70 45.06,45.56 42.50,46.00C39.71,46.49 36.95,47.79 34.50,49.17C28.77,52.40 24.58,59.28 23.11,65.50C22.73,67.13 22.68,68.83 22.69,70.50C22.69,70.84 22.69,72.17 22.82,72.50C23.34,73.73 24.36,73.66 25.50,73.85C26.90,74.08 28.19,74.43 29.50,74.97C31.34,75.73 33.46,77.00 34.79,78.50C35.57,79.38 36.28,80.95 37.50,81.29C38.28,81.51 39.75,80.96 40.50,80.76C42.48,80.23 44.48,79.96 46.50,79.59C48.49,79.22 50.51,79.09 52.50,78.74C56.99,77.95 61.14,76.45 65.50,75.24C71.25,73.65 76.95,70.72 81.50,66.80C83.35,65.20 85.06,63.38 86.61,61.50C87.26,60.71 88.58,59.53 88.82,58.50C89.08,57.39 88.44,56.50 88.12,55.50C86.23,49.56 87.35,42.94 91.50,38.22C92.76,36.79 94.07,35.56 95.65,34.50C96.26,34.09 97.73,33.42 97.81,32.50C98.05,30.01 95.26,27.83 93.50,26.61C88.22,22.98 81.85,21.79 75.50,22.46ZM110.50,30.45C109.48,30.78 110.31,33.01 110.78,33.50C111.53,34.27 112.60,34.74 113.50,35.30C114.84,36.12 115.95,37.32 116.96,38.50C121.02,43.22 122.24,49.60 120.10,55.50C117.75,61.96 112.40,66.31 105.50,67.00C103.68,67.18 101.79,67.00 100.03,66.50C99.26,66.28 98.19,65.83 97.50,66.56C95.75,68.43 94.22,70.51 92.50,72.41C89.22,76.02 84.76,79.17 80.50,81.49C78.92,82.35 81.55,83.36 81.88,83.50C84.44,84.56 87.05,85.32 89.50,86.65C93.89,89.04 97.75,92.29 101.50,95.55C103.33,97.14 105.12,98.65 106.70,100.50C109.63,103.93 112.72,107.57 114.95,111.50C116.20,113.72 117.10,116.16 118.09,118.50C119.06,120.79 120.15,123.07 120.75,125.50C121.39,128.11 121.87,130.81 121.98,133.50C122.01,134.26 121.61,136.57 122.50,136.98C123.95,137.66 127.09,136.19 128.50,135.69C131.52,134.62 134.66,133.52 137.50,132.01C140.79,130.26 143.73,127.93 146.55,125.50C151.65,121.10 155.61,116.72 158.35,110.50C159.38,108.17 160.47,105.93 161.25,103.50C161.54,102.60 162.08,101.45 161.92,100.50C161.75,99.51 160.86,99.08 160.18,98.50C159.11,97.59 158.08,96.62 157.23,95.50C153.11,90.05 150.66,81.42 154.50,75.11C155.98,72.68 157.67,70.29 159.92,68.50C160.98,67.66 162.79,67.07 162.72,65.50C162.53,61.54 160.02,57.85 158.19,54.50C156.87,52.07 155.50,49.71 153.82,47.50C151.60,44.56 148.39,42.13 145.50,39.89C143.29,38.17 141.07,36.34 138.50,35.17C134.10,33.15 129.27,31.75 124.50,30.97C121.50,30.48 118.54,30.09 115.50,30.06C113.83,30.05 112.10,29.93 110.50,30.45Z" /></clipPath>
  </defs>
  <g transform="translate(0 3) scale(.44)"><g id="cn-v2-horizontal-brain-question-mark" fill="url(#cn-v2-horizontal-v2-teal)" fill-rule="evenodd"><path id="cn-v2-horizontal-brain-network" d="M69.70,11.50C78.16,9.44 87.66,10.34 95.50,14.06C97.25,14.89 98.92,15.96 100.50,17.09C101.46,17.77 102.32,18.83 103.50,19.14C105.83,19.77 109.10,19.02 111.50,18.90C115.47,18.69 119.55,18.75 123.50,19.20C130.30,19.97 136.32,21.78 142.50,24.61C145.75,26.10 149.20,27.37 152.10,29.50C155.97,32.33 159.11,35.88 162.20,39.50C164.12,41.74 166.10,43.92 167.57,46.50C169.59,50.05 171.41,53.60 172.68,57.50C173.10,58.81 173.58,60.16 173.90,61.50C174.23,62.92 174.23,64.31 175.17,65.50C175.68,66.16 177.65,66.46 178.50,66.87C180.85,68.01 182.93,69.41 184.54,71.50C191.66,80.71 189.56,95.07 178.50,100.12C177.22,100.70 175.38,100.81 174.50,101.96C173.68,103.03 173.35,105.18 172.91,106.50C172.00,109.21 171.02,111.91 169.81,114.50C166.75,121.07 161.79,127.57 156.48,132.50C153.11,135.62 149.46,137.93 145.50,140.20C143.48,141.36 141.60,142.83 139.50,143.85C136.95,145.10 134.23,146.01 131.50,146.79C126.88,148.12 122.07,148.81 117.50,150.28C111.72,152.13 106.13,154.96 101.50,158.92C99.77,160.40 97.76,161.97 96.50,163.89C95.68,165.14 96.77,165.77 97.50,166.72C98.61,168.16 99.54,169.81 100.23,171.50C102.03,175.88 101.97,181.28 99.78,185.50C97.96,189.00 95.06,192.21 91.50,193.97C85.17,197.10 76.32,195.73 71.46,190.50C65.51,184.10 64.68,173.15 70.82,166.50C73.17,163.96 76.05,161.79 79.50,161.04C80.96,160.73 83.19,161.05 84.50,160.36C86.14,159.51 87.24,156.96 88.36,155.50C90.82,152.30 94.08,149.11 97.50,146.98C100.06,145.38 102.80,143.67 105.59,142.50C107.22,141.82 109.33,141.49 109.78,139.50C111.57,131.65 108.05,124.13 104.38,117.50C101.39,112.11 97.24,106.42 92.42,102.50C89.11,99.81 85.36,97.67 81.50,95.88C78.53,94.50 75.65,93.11 72.50,92.15C62.61,89.12 51.17,89.35 41.50,93.03C39.58,93.76 39.52,95.78 38.91,97.50C38.55,98.48 38.01,99.44 37.50,100.34C34.79,105.09 29.92,108.35 24.50,109.02C22.19,109.31 19.76,109.33 17.50,108.73C8.39,106.27 2.84,96.60 4.86,87.50C5.49,84.70 6.70,82.12 8.50,79.89C9.27,78.94 11.25,77.47 11.50,76.28C11.88,74.48 11.26,72.34 11.23,70.50C11.18,67.48 11.54,64.44 12.26,61.50C14.72,51.38 22.16,42.14 31.50,37.50C33.42,36.54 35.43,35.73 37.50,35.18C38.67,34.87 40.45,34.97 41.50,34.30C42.80,33.47 43.42,31.78 44.16,30.50C45.38,28.39 46.92,26.52 48.50,24.68C53.99,18.29 61.56,13.48 69.70,11.50ZM75.50,22.46C67.14,23.34 59.62,28.50 55.13,35.50C53.91,37.41 52.63,39.37 51.84,41.50C51.59,42.18 51.08,44.20 50.49,44.50C48.18,45.70 45.06,45.56 42.50,46.00C39.71,46.49 36.95,47.79 34.50,49.17C28.77,52.40 24.58,59.28 23.11,65.50C22.73,67.13 22.68,68.83 22.69,70.50C22.69,70.84 22.69,72.17 22.82,72.50C23.34,73.73 24.36,73.66 25.50,73.85C26.90,74.08 28.19,74.43 29.50,74.97C31.34,75.73 33.46,77.00 34.79,78.50C35.57,79.38 36.28,80.95 37.50,81.29C38.28,81.51 39.75,80.96 40.50,80.76C42.48,80.23 44.48,79.96 46.50,79.59C48.49,79.22 50.51,79.09 52.50,78.74C56.99,77.95 61.14,76.45 65.50,75.24C71.25,73.65 76.95,70.72 81.50,66.80C83.35,65.20 85.06,63.38 86.61,61.50C87.26,60.71 88.58,59.53 88.82,58.50C89.08,57.39 88.44,56.50 88.12,55.50C86.23,49.56 87.35,42.94 91.50,38.22C92.76,36.79 94.07,35.56 95.65,34.50C96.26,34.09 97.73,33.42 97.81,32.50C98.05,30.01 95.26,27.83 93.50,26.61C88.22,22.98 81.85,21.79 75.50,22.46ZM110.50,30.45C109.48,30.78 110.31,33.01 110.78,33.50C111.53,34.27 112.60,34.74 113.50,35.30C114.84,36.12 115.95,37.32 116.96,38.50C121.02,43.22 122.24,49.60 120.10,55.50C117.75,61.96 112.40,66.31 105.50,67.00C103.68,67.18 101.79,67.00 100.03,66.50C99.26,66.28 98.19,65.83 97.50,66.56C95.75,68.43 94.22,70.51 92.50,72.41C89.22,76.02 84.76,79.17 80.50,81.49C78.92,82.35 81.55,83.36 81.88,83.50C84.44,84.56 87.05,85.32 89.50,86.65C93.89,89.04 97.75,92.29 101.50,95.55C103.33,97.14 105.12,98.65 106.70,100.50C109.63,103.93 112.72,107.57 114.95,111.50C116.20,113.72 117.10,116.16 118.09,118.50C119.06,120.79 120.15,123.07 120.75,125.50C121.39,128.11 121.87,130.81 121.98,133.50C122.01,134.26 121.61,136.57 122.50,136.98C123.95,137.66 127.09,136.19 128.50,135.69C131.52,134.62 134.66,133.52 137.50,132.01C140.79,130.26 143.73,127.93 146.55,125.50C151.65,121.10 155.61,116.72 158.35,110.50C159.38,108.17 160.47,105.93 161.25,103.50C161.54,102.60 162.08,101.45 161.92,100.50C161.75,99.51 160.86,99.08 160.18,98.50C159.11,97.59 158.08,96.62 157.23,95.50C153.11,90.05 150.66,81.42 154.50,75.11C155.98,72.68 157.67,70.29 159.92,68.50C160.98,67.66 162.79,67.07 162.72,65.50C162.53,61.54 160.02,57.85 158.19,54.50C156.87,52.07 155.50,49.71 153.82,47.50C151.60,44.56 148.39,42.13 145.50,39.89C143.29,38.17 141.07,36.34 138.50,35.17C134.10,33.15 129.27,31.75 124.50,30.97C121.50,30.48 118.54,30.09 115.50,30.06C113.83,30.05 112.10,29.93 110.50,30.45Z" /><g clip-path="url(#cn-v2-horizontal-node-clip)"><circle id="cn-v2-horizontal-left-node" cx="22.2" cy="92.1" r="18.3" fill="#203F3E" /><circle id="cn-v2-horizontal-upper-node" cx="104.3" cy="49.5" r="17.8" fill="#223F3F" /><circle id="cn-v2-horizontal-right-node" cx="171.6" cy="83.5" r="19" fill="#436C65" /><circle id="cn-v2-horizontal-stem-node" cx="83.8" cy="178.7" r="18.2" fill="#355D58" /></g><path id="cn-v2-horizontal-question-dot" fill="#315752" d="M81.94,209.50C91.50,207.04 102.39,214.03 104.78,223.50C107.52,234.36 101.03,244.67 90.44,247.50C80.68,250.11 69.19,243.62 67.16,233.50C66.29,229.19 66.48,224.61 68.13,220.50C70.40,214.85 76.26,210.96 81.94,209.50Z" /></g></g><g transform="translate(110 31) scale(1.08)"><g id="cn-v2-horizontal-wordmark" fill-rule="evenodd"><path id="cn-v2-horizontal-chiropractic" fill="#0F2D2E" d="M26.04,6.50C30.94,5.69 35.53,7.52 39.50,10.27C40.34,10.85 42.29,12.28 42.05,13.50C41.82,14.71 39.76,15.78 38.89,16.50C38.52,16.81 37.97,17.37 37.50,17.40C36.89,17.44 36.39,16.84 35.98,16.50C34.96,15.64 33.75,14.84 32.50,14.37C28.45,12.82 24.23,13.20 20.50,15.39C18.91,16.32 17.72,17.96 16.79,19.50C13.01,25.81 14.58,35.49 21.50,38.99C24.79,40.65 29.19,40.72 32.50,39.08C33.40,38.63 34.33,38.11 35.13,37.50C35.60,37.14 36.00,36.58 36.50,36.29C36.82,36.10 37.13,35.79 37.50,35.81C38.20,35.84 38.28,36.19 38.63,36.50C39.68,37.43 42.35,38.88 41.89,40.50C41.69,41.17 40.66,42.04 40.18,42.50C38.25,44.30 35.99,45.48 33.50,46.29C25.61,48.84 15.98,46.33 11.00,39.50C5.44,31.87 5.86,19.67 12.50,12.82C14.90,10.34 18.14,8.19 21.50,7.31C22.98,6.92 24.54,6.75 26.04,6.50ZM45.73,7.50C46.42,6.15 49.27,6.77 50.50,6.72C50.83,6.70 51.18,6.55 51.50,6.63C51.54,6.64 52.62,7.06 52.68,7.50C52.80,8.45 52.66,9.54 52.67,10.50C52.70,12.50 52.76,14.50 52.79,16.50C52.81,17.61 52.49,19.47 52.97,20.50C53.07,20.70 53.28,20.90 53.50,20.90C53.70,20.90 55.38,19.55 55.45,19.50C56.31,18.94 57.49,18.55 58.50,18.30C62.17,17.38 67.13,18.34 69.50,21.56C73.22,26.62 72.14,33.52 72.17,39.50C72.19,41.67 72.68,44.61 71.50,46.49C71.32,46.77 70.84,46.64 70.50,46.68C69.24,46.81 67.75,46.80 66.50,46.65C66.32,46.63 65.63,46.41 65.50,46.25C64.92,45.53 65.16,44.34 65.16,43.50C65.15,40.83 65.14,38.17 65.15,35.50C65.17,31.75 65.82,25.27 60.50,24.80C59.53,24.72 58.44,24.80 57.50,25.04C56.44,25.30 55.62,25.83 54.76,26.50C52.88,27.97 52.74,30.30 52.71,32.50C52.67,35.17 52.72,37.83 52.70,40.50C52.69,42.18 53.53,45.63 51.50,46.31C50.43,46.66 48.62,46.42 47.50,46.35C47.17,46.33 46.80,46.39 46.50,46.24C46.17,46.09 45.87,45.82 45.71,45.50C45.35,44.81 45.55,43.26 45.53,42.50C45.50,40.50 45.50,38.50 45.53,36.50C45.62,29.49 45.42,22.50 45.40,15.50C45.39,13.50 45.47,11.50 45.57,9.50C45.58,9.40 45.67,7.60 45.73,7.50ZM77.28,7.50C78.91,5.87 81.95,6.74 83.05,8.50C83.84,9.75 83.91,11.18 83.24,12.50C83.03,12.91 82.89,13.43 82.50,13.66C80.76,14.70 78.59,15.02 76.98,13.50C75.19,11.81 75.68,9.10 77.28,7.50ZM269.07,7.50C270.71,6.19 273.17,6.75 274.50,8.14C276.16,9.87 275.51,13.05 273.50,14.17C271.74,15.15 270.11,14.59 268.60,13.50C266.60,12.05 267.47,8.79 269.07,7.50ZM250.95,11.50C251.75,11.14 252.64,11.14 253.50,11.07C254.17,11.02 254.83,10.73 255.50,10.82C257.03,11.02 256.78,12.33 256.83,13.50C256.90,15.10 256.63,17.02 257.31,18.50C257.48,18.88 258.09,18.82 258.50,18.87C259.82,19.01 261.18,18.80 262.50,18.91C262.98,18.95 263.68,18.90 263.89,19.50C264.24,20.52 264.12,22.44 263.95,23.50C263.89,23.91 263.90,24.56 263.50,24.65C262.52,24.87 261.49,24.73 260.50,24.70C259.74,24.68 258.19,24.42 257.50,24.80C256.55,25.33 256.95,27.63 256.95,28.50C256.94,30.50 256.91,32.50 256.92,34.50C256.93,36.22 256.84,37.89 257.50,39.50C258.07,40.89 260.33,41.02 261.50,40.90C262.22,40.83 262.77,40.48 263.50,40.89C264.00,41.17 263.94,42.11 263.99,42.50C264.16,43.90 264.86,45.30 263.50,46.25C262.18,47.17 260.00,47.01 258.50,46.95C257.50,46.91 256.37,46.89 255.44,46.50C253.76,45.80 252.13,45.10 251.10,43.50C249.87,41.60 249.91,39.70 249.92,37.50C249.93,35.17 249.98,32.83 249.96,30.50C249.94,29.17 249.92,27.83 249.88,26.50C249.87,26.00 250.01,25.23 249.50,24.84C248.07,23.74 245.51,25.88 245.06,23.50C244.94,22.84 245.11,22.17 245.12,21.50C245.12,21.11 245.12,19.88 245.22,19.50C245.50,18.51 247.82,19.12 248.50,18.96C248.86,18.87 249.40,18.82 249.50,18.47C249.98,16.86 249.86,15.17 249.92,13.50C249.95,12.56 250.01,11.92 250.95,11.50ZM100.58,18.50C101.54,18.29 102.51,18.16 103.50,18.28C103.84,18.32 104.34,18.20 104.51,18.50C105.39,20.02 105.10,21.77 105.05,23.50C105.03,24.04 105.17,24.95 104.50,25.30C103.92,25.60 102.17,25.21 101.50,25.23C99.08,25.31 97.02,26.38 95.80,28.50C93.80,31.98 94.81,36.65 94.78,40.50C94.78,41.83 94.76,43.17 94.64,44.50C94.61,44.85 94.77,45.32 94.50,45.55C94.17,45.83 93.90,46.20 93.50,46.37C93.19,46.51 92.83,46.39 92.50,46.41C91.51,46.44 90.49,46.52 89.50,46.46C86.80,46.30 87.62,43.44 87.65,41.50C87.73,35.50 87.78,29.50 87.76,23.50C87.76,22.38 87.46,20.54 87.91,19.50C88.23,18.77 88.83,18.80 89.50,18.75C91.09,18.62 93.11,18.51 94.50,19.33C95.02,19.64 94.45,21.61 95.50,21.61C95.85,21.61 96.25,20.81 96.60,20.50C97.83,19.42 98.95,18.86 100.58,18.50ZM117.19,18.50C122.55,17.06 129.91,19.50 132.80,24.50C133.57,25.83 134.04,27.18 134.50,28.64C136.89,36.23 132.10,44.75 124.50,46.77C116.63,48.88 108.02,44.60 106.15,36.50C104.78,30.61 106.88,23.33 112.50,20.32C114.04,19.50 115.50,18.96 117.19,18.50ZM151.42,18.50C153.70,17.65 156.30,18.05 158.50,18.86C166.03,21.64 168.69,30.15 166.53,37.50C164.58,44.14 158.43,48.17 151.50,47.08C150.12,46.86 148.82,46.16 147.60,45.50C147.16,45.26 147.38,44.55 146.50,44.58C146.10,44.60 145.89,45.14 145.72,45.50C145.38,46.24 145.58,47.70 145.55,48.50C145.47,50.50 145.26,52.50 145.18,54.50C145.15,55.39 145.51,56.73 144.50,57.26C143.81,57.62 142.26,57.36 141.50,57.35C140.52,57.35 139.35,57.71 138.50,57.04C138.16,56.78 138.29,55.69 138.29,55.50C138.29,54.50 138.26,53.50 138.24,52.50C138.13,47.50 138.13,42.50 138.18,37.50C138.23,32.83 138.24,28.17 138.22,23.50C138.22,22.50 138.20,21.49 138.28,20.50C138.31,20.11 138.16,19.54 138.50,19.35C139.93,18.56 141.89,18.79 143.50,18.85C144.17,18.87 144.82,18.75 145.19,19.50C145.20,19.52 145.31,21.18 145.50,21.28C145.79,21.44 146.20,21.31 146.50,21.16C146.93,20.96 147.10,20.41 147.50,20.15C148.73,19.35 150.06,19.01 151.42,18.50ZM184.32,18.50C185.26,18.36 187.56,18.07 187.88,19.50C188.06,20.35 187.87,21.62 187.87,22.50C187.86,23.06 188.08,24.46 187.50,24.85C186.23,25.71 184.91,25.08 183.50,25.32C181.53,25.65 179.72,26.94 178.56,28.50C177.77,29.58 177.63,31.21 177.54,32.50C177.32,35.49 177.42,38.51 177.39,41.50C177.37,43.19 177.74,45.07 176.71,46.50C176.34,47.01 174.07,46.69 173.50,46.68C173.22,46.67 171.75,46.76 171.50,46.44C170.43,45.10 170.78,43.13 170.77,41.50C170.71,36.17 170.75,30.83 170.76,25.50C170.77,24.17 170.77,22.83 170.77,21.50C170.77,21.01 170.69,19.97 170.93,19.50C171.23,18.90 171.99,18.99 172.50,18.96C173.64,18.89 175.40,18.62 176.50,18.95C176.84,19.06 177.24,19.19 177.43,19.50C177.73,19.98 176.91,21.78 178.50,21.45C178.91,21.37 179.02,20.81 179.29,20.50C179.55,20.21 180.47,19.69 180.50,19.67C181.66,18.94 182.99,18.70 184.32,18.50ZM197.07,18.50C198.79,17.99 200.73,18.08 202.50,18.17C203.91,18.25 205.15,18.61 206.50,18.98C207.35,19.21 207.76,19.43 208.50,19.82C213.42,22.38 213.73,27.54 213.73,32.50C213.73,34.83 213.73,37.17 213.71,39.50C213.70,41.17 213.71,42.83 213.69,44.50C213.68,44.62 213.84,45.52 213.50,45.76C212.34,46.58 210.88,46.46 209.50,46.48C209.05,46.49 207.91,46.51 207.50,46.25C206.86,45.85 206.90,45.11 206.70,44.50C206.66,44.37 206.63,44.15 206.50,44.15C206.01,44.15 204.69,45.35 204.52,45.50C204.10,45.85 203.05,46.42 202.50,46.63C198.19,48.30 192.70,47.24 189.84,43.50C186.83,39.56 188.39,33.66 192.50,31.19C194.85,29.78 197.80,29.47 200.50,29.45C201.83,29.43 203.17,29.55 204.50,29.64C205.59,29.72 206.89,30.05 206.92,28.50C206.92,28.15 206.72,27.83 206.60,27.50C205.29,23.73 200.97,23.17 197.60,24.50C196.12,25.08 195.15,26.54 193.50,26.54C193.06,26.54 192.83,25.97 192.50,25.68C191.75,25.01 189.72,23.70 189.97,22.50C190.05,22.09 191.20,21.25 191.50,21.00C193.17,19.61 195.04,19.11 197.07,18.50ZM227.59,18.50C231.63,17.28 236.08,18.34 239.50,20.67C240.35,21.26 241.03,21.78 241.78,22.50C242.12,22.83 242.67,23.04 242.78,23.50C242.86,23.82 242.90,24.17 242.83,24.50C242.72,25.02 241.95,25.12 241.50,25.40C240.66,25.91 239.60,27.10 238.50,27.08C237.22,27.05 236.61,25.60 235.50,25.15C233.92,24.49 232.18,24.28 230.50,24.45C224.15,25.11 222.93,32.81 225.33,37.50C226.67,40.14 229.74,41.16 232.50,40.95C234.05,40.83 235.17,40.31 236.50,39.53C236.94,39.28 237.22,38.79 237.64,38.50C237.92,38.31 238.16,37.98 238.50,37.94C239.14,37.87 239.38,38.20 239.76,38.50C240.33,38.93 240.90,39.45 241.50,39.84C242.20,40.30 243.00,40.42 242.95,41.50C242.94,41.62 242.26,42.36 242.14,42.50C241.13,43.65 240.12,44.66 238.84,45.50C236.99,46.71 234.66,47.05 232.50,47.10C228.51,47.18 224.30,46.35 221.30,43.50C216.13,38.57 215.67,30.53 219.19,24.50C220.98,21.42 224.28,19.50 227.59,18.50ZM288.56,18.50C292.47,17.43 297.05,17.93 300.50,20.12C301.47,20.74 302.44,21.66 303.22,22.50C303.32,22.61 303.87,23.46 303.87,23.50C303.87,23.95 303.29,24.20 302.95,24.50C302.21,25.17 301.30,25.74 300.50,26.34C300.23,26.54 299.75,26.93 299.50,26.95C298.29,27.03 297.48,25.55 296.50,25.11C294.97,24.41 293.16,24.02 291.50,24.35C283.27,25.96 283.24,39.26 291.50,40.78C292.42,40.95 293.57,40.96 294.50,40.81C296.23,40.52 297.68,39.58 299.01,38.50C300.25,37.50 301.47,38.95 302.50,39.64C303.26,40.15 304.12,40.36 303.94,41.50C303.93,41.57 303.17,42.42 303.10,42.50C302.02,43.64 300.82,44.54 299.50,45.36C294.41,48.52 286.60,47.86 282.50,43.28C280.49,41.05 278.92,38.47 278.24,35.50C276.55,28.14 281.39,20.45 288.56,18.50ZM76.24,19.50C76.32,19.03 77.35,18.84 77.50,18.81C78.74,18.58 80.25,18.78 81.50,18.82C82.20,18.85 82.96,18.71 83.39,19.50C83.70,20.07 83.36,21.85 83.36,22.50C83.34,24.83 83.37,27.17 83.41,29.50C83.48,33.50 83.46,37.50 83.50,41.50C83.51,42.50 83.52,43.50 83.51,44.50C83.51,44.83 83.70,45.24 83.49,45.50C82.20,47.16 80.41,46.52 78.50,46.52C77.80,46.52 76.53,46.67 76.41,45.50C76.14,42.87 76.34,40.14 76.32,37.50C76.29,33.50 76.33,29.50 76.35,25.50C76.36,23.61 75.93,21.35 76.24,19.50ZM268.00,19.50C268.26,18.82 268.94,18.95 269.50,18.92C270.80,18.84 272.20,18.77 273.50,18.86C274.07,18.90 274.70,18.83 274.92,19.50C275.21,20.34 275.03,21.62 275.04,22.50C275.07,24.50 275.10,26.50 275.10,28.50C275.11,32.50 274.99,36.50 274.97,40.50C274.96,42.43 275.35,44.74 274.54,46.50C274.39,46.82 273.85,46.67 273.50,46.69C272.24,46.77 270.76,46.79 269.50,46.68C269.16,46.65 268.66,46.79 268.50,46.49C267.80,45.18 267.96,43.96 267.96,42.50C267.97,40.83 267.98,39.17 267.98,37.50C267.99,33.17 267.99,28.83 267.94,24.50C267.92,23.08 267.48,20.84 268.00,19.50ZM118.50,24.50C114.11,25.21 112.36,30.76 113.13,34.50C113.98,38.64 117.70,41.62 122.00,40.50C122.87,40.27 123.69,40.01 124.50,39.61C127.65,38.05 128.52,33.62 127.97,30.50C127.19,26.00 122.72,23.81 118.50,24.50ZM150.50,25.05C149.04,25.51 146.83,27.06 146.20,28.50C145.53,30.04 145.43,31.85 145.58,33.50C145.67,34.46 145.74,35.58 146.05,36.50C147.18,39.88 151.28,41.35 154.50,40.59C158.73,39.58 160.28,35.43 160.02,31.50C159.72,26.94 154.95,23.63 150.50,25.05ZM197.50,35.13C194.97,36.31 195.31,39.83 197.50,41.14C199.59,42.38 202.51,41.56 204.50,40.53C205.83,39.84 206.81,37.95 206.81,36.50C206.81,36.29 206.89,35.43 206.50,35.20C205.56,34.64 204.55,34.71 203.50,34.64C201.60,34.50 199.28,34.29 197.50,35.13Z" /><path id="cn-v2-horizontal-nerd" fill="#4E7F73" d="M429.40,6.50C430.24,6.45 430.73,6.63 430.96,7.50C430.99,7.59 431.00,9.41 431.00,9.50C431.00,11.17 430.99,12.83 430.99,14.50C430.99,23.50 431.10,32.50 431.06,41.50C431.05,43.19 431.27,44.97 430.52,46.50C430.37,46.81 429.84,46.64 429.50,46.66C427.89,46.77 426.11,46.69 424.50,46.52C422.69,46.32 424.22,44.11 422.50,44.11C422.05,44.11 421.87,44.75 421.50,45.01C420.61,45.63 419.52,46.23 418.50,46.57C414.61,47.90 409.57,46.92 406.50,44.17C400.48,38.77 400.19,30.11 404.32,23.50C405.46,21.68 407.22,20.55 409.02,19.50C411.81,17.86 415.53,17.86 418.50,18.84C419.63,19.21 420.48,19.70 421.50,20.33C421.78,20.50 422.30,21.01 422.50,21.01C422.77,21.01 423.00,20.73 423.13,20.50C423.56,19.73 423.46,18.35 423.48,17.50C423.56,15.17 423.64,12.83 423.68,10.50C423.71,9.44 423.30,7.37 424.50,6.81C424.80,6.67 425.17,6.74 425.50,6.71C426.80,6.60 428.10,6.58 429.40,6.50ZM318.27,7.50C318.52,7.05 320.09,7.28 320.50,7.28C321.76,7.26 323.27,7.03 324.50,7.22C325.87,7.43 326.83,9.58 327.50,10.58C329.74,13.88 331.91,17.23 334.19,20.50C335.36,22.17 336.69,23.76 337.76,25.50C338.82,27.22 340.06,28.81 341.17,30.50C341.38,30.82 342.52,32.70 342.66,32.50C343.39,31.49 343.31,30.68 343.40,29.50C343.56,27.50 343.62,25.51 343.63,23.50C343.66,20.83 343.69,18.17 343.74,15.50C343.77,13.83 343.83,12.17 343.88,10.50C343.88,10.34 343.91,8.65 343.96,8.50C344.26,7.70 344.80,7.84 345.50,7.82C346.76,7.77 348.25,7.66 349.50,7.83C349.93,7.89 350.64,7.95 350.79,8.50C351.05,9.40 350.95,10.57 350.98,11.50C351.04,13.50 351.07,15.50 351.09,17.50C351.16,23.83 351.23,30.17 351.19,36.50C351.17,39.17 351.15,41.83 351.19,44.50C351.20,45.01 351.36,46.52 350.50,46.64C348.55,46.93 345.22,46.99 343.50,45.87C342.78,45.39 342.13,44.18 341.64,43.50C340.68,42.16 339.68,40.88 338.77,39.50C336.30,35.77 333.63,32.12 330.99,28.50C329.55,26.52 328.12,24.59 326.84,22.50C326.67,22.22 325.83,21.00 325.50,21.00C324.80,21.00 325.04,23.18 325.04,23.50C325.03,26.17 324.94,28.83 324.91,31.50C324.88,34.83 324.92,38.17 324.88,41.50C324.86,42.75 325.06,44.27 324.81,45.50C324.48,47.10 321.61,46.50 320.50,46.47C320.18,46.46 318.80,46.46 318.50,46.28C318.23,46.11 318.05,45.80 317.94,45.50C317.90,45.38 317.82,43.62 317.82,43.50C317.74,41.50 317.75,39.50 317.74,37.50C317.69,30.83 317.82,24.17 317.86,17.50C317.87,15.50 317.84,13.50 317.82,11.50C317.82,10.15 317.58,8.72 318.27,7.50ZM365.30,18.50C370.66,16.75 377.72,19.95 380.50,24.68C381.94,27.12 382.10,29.72 382.09,32.50C382.09,33.17 382.38,34.73 381.50,35.08C380.51,35.46 378.57,35.04 377.50,35.05C373.50,35.07 369.50,35.01 365.50,35.01C364.61,35.01 362.23,34.67 361.60,35.50C361.11,36.15 361.76,37.04 362.06,37.50C362.86,38.74 364.23,39.70 365.50,40.39C367.48,41.47 370.42,41.30 372.50,40.57C373.65,40.16 374.49,39.27 375.50,38.64C376.80,37.82 377.46,39.27 378.50,39.80C379.18,40.14 380.52,40.37 380.47,41.50C380.45,41.92 379.83,42.54 379.50,42.87C378.57,43.80 377.64,44.48 376.50,45.12C370.90,48.30 363.62,47.71 358.74,43.50C354.29,39.66 353.62,32.89 355.23,27.50C355.67,26.04 356.59,24.75 357.44,23.50C359.26,20.84 362.39,19.45 365.30,18.50ZM384.88,19.50C385.24,18.82 385.87,18.95 386.50,18.92C387.50,18.88 388.50,18.89 389.50,18.85C389.83,18.83 390.18,18.69 390.50,18.79C390.87,18.92 391.23,19.17 391.42,19.50C391.77,20.09 390.93,21.48 392.50,21.45C392.95,21.44 393.13,20.82 393.44,20.50C393.75,20.20 394.15,20.02 394.50,19.78C394.64,19.69 394.78,19.59 394.93,19.50C396.59,18.50 399.88,17.90 401.50,19.15C402.04,19.56 401.78,20.93 401.79,21.50C401.79,22.45 401.93,23.57 401.72,24.50C401.53,25.32 400.02,25.09 399.50,25.09C397.65,25.10 396.11,25.51 394.50,26.39C391.70,27.92 391.43,31.71 391.34,34.50C391.26,37.16 391.26,39.83 391.26,42.50C391.26,43.86 391.57,45.31 390.79,46.50C390.46,47.01 388.98,46.76 388.50,46.75C387.52,46.74 386.47,46.79 385.50,46.63C384.10,46.40 384.44,43.37 384.43,42.50C384.40,37.17 384.38,31.83 384.42,26.50C384.43,24.83 384.49,23.17 384.61,21.50C384.63,21.15 384.70,19.82 384.88,19.50ZM366.50,24.23C364.59,24.71 362.36,26.50 361.92,28.50C361.76,29.22 361.68,29.72 362.50,29.98C363.32,30.24 364.64,30.00 365.50,29.99C367.17,29.98 368.83,29.99 370.50,30.00C371.48,30.00 372.53,30.08 373.50,29.97C373.51,29.97 374.64,29.91 374.75,29.50C375.02,28.42 374.36,27.38 373.80,26.50C372.36,24.22 368.92,23.62 366.50,24.23ZM412.50,25.18C408.31,26.81 407.82,31.76 408.84,35.50C409.96,39.60 414.67,42.63 418.80,40.50C419.83,39.97 420.64,39.59 421.50,38.81C423.66,36.85 423.79,33.20 423.32,30.50C422.45,25.49 417.05,23.42 412.50,25.18Z" /></g></g></svg>
